<?xml version="1.0" standalone="no"?>
<!DOCTYPE svg PUBLIC "-//W3C//DTD SVG 20010904//EN"
 "http://www.w3.org/TR/2001/REC-SVG-20010904/DTD/svg10.dtd">
<svg version="1.0" xmlns="http://www.w3.org/2000/svg"
 width="500.000000pt" height="444.000000pt" viewBox="0 0 500.000000 444.000000"
 preserveAspectRatio="xMidYMid meet">

<g transform="translate(0.000000,444.000000) scale(0.100000,-0.100000)"
fill="#000000" stroke="none">
<path d="M1105 1236 c-110 -51 -129 -203 -36 -291 27 -25 41 -30 99 -33 57 -3
72 0 102 20 47 32 70 80 70 149 0 61 -22 105 -72 142 -34 26 -122 33 -163 13z
m124 -14 c47 -23 71 -73 71 -145 0 -63 -19 -111 -54 -139 -30 -25 -106 -24
-139 2 -80 63 -70 248 16 285 43 19 65 18 106 -3z"/>
<path d="M1595 1236 c-110 -51 -129 -203 -36 -291 27 -25 41 -30 99 -33 57 -3
72 0 102 20 47 32 70 80 70 149 0 61 -22 105 -72 142 -34 26 -122 33 -163 13z
m124 -14 c47 -23 71 -73 71 -145 0 -63 -19 -111 -54 -139 -30 -25 -106 -24
-139 2 -80 63 -70 248 16 285 43 19 65 18 106 -3z"/>
<path d="M618 1233 c9 -3 12 -44 12 -154 0 -146 -1 -150 -22 -159 -17 -6 -7
-9 42 -9 49 0 59 3 43 9 -21 9 -23 16 -23 85 l0 76 30 -16 c17 -9 44 -41 66
-78 42 -73 48 -77 94 -76 19 0 28 3 20 6 -25 9 -61 46 -80 83 -10 19 -27 44
-39 54 l-21 19 30 19 c40 24 57 60 44 96 -13 38 -49 52 -134 51 -41 0 -69 -3
-62 -6z m142 -23 c45 -45 11 -120 -55 -120 l-35 0 0 70 0 70 35 0 c22 0 43 -8
55 -20z"/>
<path d="M2030 1225 c16 -20 26 -179 15 -250 -5 -34 -12 -48 -28 -55 -16 -6
-6 -9 38 -8 33 0 50 3 38 5 -30 6 -34 28 -31 146 l3 98 64 -121 c35 -66 67
-117 71 -113 4 4 33 70 66 146 l59 137 3 -122 c3 -139 -1 -165 -26 -171 -9 -3
12 -5 48 -5 47 -1 59 2 43 8 -28 12 -37 69 -31 202 4 71 9 103 19 109 10 6 3
9 -21 9 l-35 0 -59 -136 c-50 -114 -61 -133 -70 -117 -5 10 -38 70 -72 133
-48 91 -66 116 -84 118 -22 4 -23 2 -10 -13z"/>
</g>
</svg>
